<svg xmlns="http://www.w3.org/2000/svg" viewBox="0 0 600 600" enable-background="new 0 0 600 600"><style type="text/css">.st0{fill:#FCFCFC;}</style><path class="st0" d="M300 0c-165.7 0-300 134.3-300 300s134.3 300 300 300 300-134.3 300-300-134.3-300-300-300zm153.8 414.3c0 23.4-17.8 39.5-39.5 39.5h-228.5c-21.7 0-39.5-16.1-39.5-39.5v-228.5c0-23.4 17.8-39.5 39.5-39.5h228.5c21.7 0 39.5 16.1 39.5 39.5v228.5zM395.8 302.7c0 51.1-42.8 92.6-95.6 92.6s-95.5-41.4-95.5-92.6c0-9.2 1.4-18 3.9-26.4h-28.2v129.8c0 6.7 5.5 12.2 12.2 12.2h214.1c6.7 0 12.2-5.5 12.2-12.2l.1-129.8h-27.1c2.6 8.4 3.9 17.2 3.9 26.4zM370.2 241.2h34.8c7.6 0 13.8-6.2 13.8-13.8v-33.1c0-7.6-6.2-13.8-13.8-13.8h-34.8c-7.6 0-13.8 6.2-13.8 13.8v33.1c0 7.6 6.2 13.8 13.8 13.8zM300.3 359.1c34.1 0 61.7-26.8 61.7-59.8s-27.6-59.8-61.7-59.8-61.7 26.8-61.7 59.8 27.6 59.8 61.7 59.8z"/></svg>