<?xml version="1.0" encoding="UTF-8"?>
<svg width="29px" height="29px" viewBox="0 0 29 29" version="1.1" xmlns="http://www.w3.org/2000/svg"
     xmlns:xlink="http://www.w3.org/1999/xlink">
    <!-- Generator: Sketch 53.2 (72643) - https://sketchapp.com -->
    <title>nynewsdesk-circle-alt</title>
    <desc>Created with Sketch.</desc>
    <g id="IndexPage" stroke="none" stroke-width="1" fill="none" fill-rule="evenodd">
        <g id="IndexpageFULL-hovered" transform="translate(-770.000000, -3890.000000)">
            <g id="nynewsdesk-circle-alt" transform="translate(770.000000, 3890.000000)">
                <circle id="Oval" fill="#FFFFFF" cx="14.5" cy="14.5" r="14.5"></circle>
                <path d="M9.55262006,20.2693324 L7.02947274,20.2693324 L7.02947274,13.0066086 C7.02947274,11.5395137 7.01964859,9.99562217 7,9.01319256 L9.51163892,9.01319256 C9.51163892,9.55980083 9.51163892,9.96975702 9.51163892,10.2430612 C9.51163892,10.2430612 9.91762483,9.71114836 10.580938,9.39200067 C11.2442512,9.07285299 11.6435907,9 12.3247419,9 C13.0975865,9 13.6993279,9.08836254 14.2895913,9.41327719 C15.0239877,9.81753092 15.0827821,9.96048489 15.3644119,10.5302941 C15.711537,9.92773724 16.0878133,9.71114836 16.5540802,9.45682749 C17.0203471,9.20250662 17.6593044,9 18.3863023,9 C19.0281563,9 19.6437017,9.02792893 20.1529826,9.24237821 C20.6622634,9.45682749 21.1941762,9.81753092 21.4758876,10.2673279 C21.757599,10.7171248 21.9388541,11.2284199 21.9707689,11.6606868 C22.0026837,12.0929536 21.999941,12.8101195 21.999941,13.6550089 L22,20.2693324 L19.4767937,20.2693324 L19.4767937,13.6451847 C19.4767937,13.068826 19.4227609,12.6218272 19.3146936,12.304175 C19.2066263,11.9865227 19.0134181,11.7310948 18.735063,11.5378837 C18.456708,11.3446725 18.1210496,11.2480684 17.7280777,11.2480684 C17.6342582,11.2480684 17.1905191,11.2929321 16.8324912,11.5196519 C16.4913777,11.7356608 16.2363568,12.1277213 16.1090898,12.3707124 C15.8467162,12.8716626 15.7615442,13.6111364 15.7615442,14.057803 L15.7615442,20.2693324 L13.2383968,20.2693324 L13.2383968,14.0283303 C13.2383968,13.1965399 13.1925508,12.6234646 13.1008574,12.3090871 C13.009164,11.9947096 12.8175931,11.736007 12.5261389,11.5329716 C12.2346848,11.3299361 11.8859275,11.2284199 11.4798566,11.2284199 C11.2660992,11.2284199 10.8182359,11.3402733 10.4708141,11.6260344 C10.3105867,11.7578246 9.95123958,12.1740481 9.75805099,12.68986 C9.5743708,13.1802846 9.55262006,13.765365 9.55262006,14.1069243 L9.55262006,20.2693324 Z"
                      id="m" fill="#2F4A70" fill-rule="nonzero"></path>
            </g>
        </g>
    </g>
</svg>