<?xml version="1.0" encoding="UTF-8"?>
<svg width="29px" height="29px" viewBox="0 0 29 29" version="1.1" xmlns="http://www.w3.org/2000/svg"
     xmlns:xlink="http://www.w3.org/1999/xlink">
    <!-- Generator: Sketch 53.2 (72643) - https://sketchapp.com -->
    <title>tiktok-circle-alt</title>
    <desc>Created with Sketch.</desc>
    <g id="IndexPage" stroke="none" stroke-width="1" fill="none" fill-rule="evenodd">
        <g id="IndexpageFULL-hovered" transform="translate(-812.000000, -3891.000000)">
            <g id="tiktok-circle-alt" transform="translate(812.000000, 3891.000000)">
                <circle id="Oval" fill="#FFFFFF" cx="14.5" cy="14.5" r="14.5"></circle>
                <g id="Group-53" transform="translate(8.700000, 7.250000)" fill="#2F4A70">
                    <g id="Group-52">
                        <g transform="translate(0.702344, 0.561875)">
                            <path d="M6.64034091,5.70034084 L6.64034091,0 L9.0461875,0 L9.0439433,0.499084203 C9.31073972,2.06689044 10.7928327,3.41807292 12.4080729,3.41807292 C12.4080729,4.09125959 12.4080729,5.45708392 12.4080729,5.80604167 C11.1719692,5.80604167 9.99222882,5.34939992 9.02547581,4.60603121 L9.00135101,9.9710978 L8.98644905,9.9710978 C8.79879375,12.2528497 6.86212126,14.046875 4.50067551,14.046875 C2.01502106,14.046875 3.30402372e-13,12.0591599 3.30402372e-13,9.60718912 C3.30402372e-13,7.15521831 2.01502106,5.16750324 4.50067551,5.16750324 C4.7262822,5.16750324 4.94801182,5.18387806 5.1647096,5.2154886 L5.1647096,7.68287235 C4.98915872,7.63494149 4.80420753,7.60933047 4.61319239,7.60933047 C3.47393411,7.60933047 2.55038279,8.52036655 2.55038279,9.6441865 C2.55038279,10.7680065 3.47393411,11.6790425 4.61319239,11.6790425 C5.63963911,11.6790425 6.49098322,10.9394986 6.64952206,9.9710978 L6.64034091,9.9710978 L6.64034091,9.60718912 L6.64034091,5.70034084 Z"
                                  id="Combined-Shape"></path>
                        </g>
                        <g>
                            <path d="M6.64034091,5.70034084 L6.64034091,0 L9.0461875,0 L9.0439433,0.499084203 C9.31073972,2.06689044 10.7928327,3.41807292 12.4080729,3.41807292 C12.4080729,4.09125959 12.4080729,5.45708392 12.4080729,5.80604167 C11.1719692,5.80604167 9.99222882,5.34939992 9.02547581,4.60603121 L9.00135101,9.9710978 L8.98644905,9.9710978 C8.79879375,12.2528497 6.86212126,14.046875 4.50067551,14.046875 C2.01502106,14.046875 3.30402372e-13,12.0591599 3.30402372e-13,9.60718912 C3.30402372e-13,7.15521831 2.01502106,5.16750324 4.50067551,5.16750324 C4.7262822,5.16750324 4.94801182,5.18387806 5.1647096,5.2154886 L5.1647096,7.68287235 C4.98915872,7.63494149 4.80420753,7.60933047 4.61319239,7.60933047 C3.47393411,7.60933047 2.55038279,8.52036655 2.55038279,9.6441865 C2.55038279,10.7680065 3.47393411,11.6790425 4.61319239,11.6790425 C5.63963911,11.6790425 6.49098322,10.9394986 6.64952206,9.9710978 L6.64034091,9.9710978 L6.64034091,9.60718912 L6.64034091,5.70034084 Z"
                                  id="Combined-Shape"></path>
                        </g>
                    </g>
                </g>
            </g>
        </g>
    </g>
</svg>